<svg width="50" height="50" viewBox="0 0 50 50" fill="none" xmlns="http://www.w3.org/2000/svg">
<path d="M29.7957 40.4804H6.89586V8.89513H29.7957C30.319 8.89513 30.743 8.47108 30.743 7.94737C30.743 7.42405 30.319 7 29.7957 7H5.94737C5.42405 7 5 7.42405 5 7.94737V41.4276C5 41.6789 5.09966 41.9201 5.27748 42.0979C5.45492 42.2757 5.69606 42.3754 5.94736 42.3754H29.7956C30.319 42.3754 30.743 41.9509 30.743 41.4276C30.743 40.9043 30.319 40.4802 29.7956 40.4802L29.7957 40.4804Z" fill="white"/>
<path d="M45.1376 25.2136C45.1376 25.2136 45.1614 25.1663 45.1755 25.1425C45.2118 25.0862 45.2376 25.0233 45.2513 24.9576C45.2513 24.9291 45.2513 24.9057 45.2751 24.8771C45.2994 24.7552 45.2994 24.6297 45.2751 24.5078C45.2751 24.4793 45.2751 24.4558 45.2513 24.4273C45.2376 24.3616 45.2118 24.2987 45.1755 24.2424C45.1755 24.2186 45.1516 24.1951 45.1376 24.1713C45.1032 24.1185 45.0633 24.0693 45.0192 24.0243L36.5187 15.5286C36.1486 15.1584 35.5483 15.1584 35.1778 15.5286C34.8077 15.8991 34.8077 16.4994 35.1778 16.8695L42.0579 23.7402H18.0115C17.4882 23.7402 17.0638 24.1642 17.0638 24.6876C17.0638 25.2113 17.4882 25.6353 18.0115 25.6353H42.0579L35.1872 32.5057C34.9863 32.6768 34.8655 32.9242 34.8546 33.1876C34.8433 33.4515 34.9429 33.7082 35.129 33.8954C35.315 34.0826 35.5706 34.1839 35.8344 34.1749C36.0982 34.1655 36.3464 34.0467 36.5187 33.8466L45.0145 25.3606C45.0602 25.3161 45.1017 25.2668 45.1376 25.2137L45.1376 25.2136Z" fill="white"/>
</svg>
