<svg width="41" height="36" viewBox="0 0 41 36" fill="none" xmlns="http://www.w3.org/2000/svg">
<path d="M24.7957 33.4804H1.89586V1.89513H24.7957C25.319 1.89513 25.743 1.47108 25.743 0.947368C25.743 0.424048 25.319 0 24.7957 0H0.947369C0.42405 0 0 0.424048 0 0.947368V34.4276C0 34.6789 0.099661 34.9201 0.277484 35.0979C0.454915 35.2757 0.696059 35.3754 0.947358 35.3754H24.7956C25.319 35.3754 25.743 34.9509 25.743 34.4276C25.743 33.9043 25.319 33.4802 24.7956 33.4802L24.7957 33.4804Z" fill="white"/>
<path d="M40.1376 18.2136C40.1376 18.2136 40.1614 18.1663 40.1755 18.1425C40.2118 18.0862 40.2376 18.0233 40.2513 17.9576C40.2513 17.9291 40.2513 17.9057 40.2751 17.8771C40.2994 17.7552 40.2994 17.6297 40.2751 17.5078C40.2751 17.4793 40.2751 17.4558 40.2513 17.4273C40.2376 17.3616 40.2118 17.2987 40.1755 17.2424C40.1755 17.2186 40.1516 17.1951 40.1376 17.1713C40.1032 17.1185 40.0633 17.0693 40.0192 17.0243L31.5187 8.52856C31.1486 8.15845 30.5483 8.15845 30.1778 8.52856C29.8077 8.89906 29.8077 9.49937 30.1778 9.86945L37.0579 16.7402H13.0115C12.4882 16.7402 12.0638 17.1642 12.0638 17.6876C12.0638 18.2113 12.4882 18.6353 13.0115 18.6353H37.0579L30.1872 25.5057C29.9863 25.6768 29.8655 25.9242 29.8546 26.1876C29.8433 26.4515 29.9429 26.7082 30.129 26.8954C30.315 27.0826 30.5706 27.1839 30.8344 27.1749C31.0982 27.1655 31.3464 27.0467 31.5187 26.8466L40.0145 18.3606C40.0602 18.3161 40.1017 18.2668 40.1376 18.2137L40.1376 18.2136Z" fill="white"/>
</svg>
