<svg width="103" height="44" viewBox="0 0 103 44" fill="none" xmlns="http://www.w3.org/2000/svg">
<path d="M30.9828 22.935C32.7222 20.46 33.5375 17.71 33.5375 14.63C33.5375 10.615 32.1243 7.205 29.2978 4.29C26.4713 1.43 23.0469 0 19.0789 0H0L3.75055 6.545L4.56589 7.37H19.0789C21.0357 7.37 22.7207 8.085 24.134 9.515C25.6016 10.945 26.3082 12.65 26.3082 14.63C26.3082 16.665 25.6016 18.425 24.134 19.855C22.7207 21.285 21.0357 22 19.0789 22L12.6105 21.945L25.2211 44H33.5375L24.6232 28.215C27.1779 27.17 29.2978 25.41 30.9828 22.935Z" fill="white"/>
<path d="M32.1676 0L53.9099 44L57.9866 35.805L40.2666 0H32.1676Z" fill="white"/>
<path d="M74.8437 29.37L81.2577 16.445L87.6173 29.37H95.7707L81.2577 0L59.5154 44H67.56L71.2562 36.63L74.8437 29.37ZM99.3582 36.685H91.3135L94.901 44H103L99.3582 36.685Z" fill="white"/>
</svg>
